# xmcd
#
# Track frame offsets:
#   150
#   12313
#   26970
#   38422
#   50734
#   63281
#   75160
#   87208
#   99595
#   110853
#   122822
#   133083
#   144619
#   155430
#   166545
#   178949
#   191077
#   200523
#   212716
#   225888
#   228498
#   241039
#   251933
#   266461
#   278424
#   287882
#   300349
#   313086
#   322939
#   335510
#
# Disc length: 4649 seconds
#
# Revision: 0
# Processed by: cddbd v1.5.1PL0 Copyright (c) Steve Scherf et al.
# Submitted via: Media_Universe 3.0
#
DISCID=a012271e
DTITLE=Sam Cooke - Portrait Of A Legend
DYEAR=1900
DGENRE=Blues
TTITLE0=Touch The Hem Of His Garment
TTITLE1=Lovable
TTITLE2=You Send Me
TTITLE3=Only Sixteen
TTITLE4=I Love You For Sentimental Reasons
TTITLE5=Just For You
TTITLE6=Win Your Love For Me
TTITLE7=Everybody Loves To Cha Cha
TTITLE8=I'll Come Running Back To You
TTITLE9=You Were Made For Me
TTITLE10=Sad Mood
TTITLE11=Cupid
TTITLE12=(What A) Wonderful World
TTITLE13=Chain Gang
TTITLE14=Summertime
TTITLE15=Little Red Rooster
TTITLE16=Bring It On Home To Me
TTITLE17=Nothing Can Change This Love
TTITLE18=Sugar Dumpling
TTITLE19=(Ain't That Good News)
TTITLE20=Meet Me At Mary's Place
TTITLE21=Twistin' The Night away
TTITLE22=Shake
TTITLE23=Tennessee Waltz
TTITLE24=Another Saturday Night
TTITLE25=Good Times
TTITLE26=Having A Party
TTITLE27=That's Where It's At
TTITLE28=A Change Is Gonna Come
TTITLE29=Jesus Gave Me Water
EXTD=
EXTT0=
EXTT1=
EXTT2=
EXTT3=
EXTT4=
EXTT5=
EXTT6=
EXTT7=
EXTT8=
EXTT9=
EXTT10=
EXTT11=
EXTT12=
EXTT13=
EXTT14=
EXTT15=
EXTT16=
EXTT17=
EXTT18=
EXTT19=
EXTT20=
EXTT21=
EXTT22=
EXTT23=
EXTT24=
EXTT25=
EXTT26=
EXTT27=
EXTT28=
EXTT29=
PLAYORDER=
